<svg width="120" height="31" viewBox="0 0 120 31" fill="none" xmlns="http://www.w3.org/2000/svg">
<path fill-rule="evenodd" clip-rule="evenodd" d="M60.7492 0C69.1899 0 76.0323 6.8729 76.0323 15.351C76.0323 23.8292 69.1899 30.7021 60.7492 30.7021C52.3086 30.7021 45.4662 23.8292 45.4662 15.351C45.4662 6.8729 52.3086 0 60.7492 0ZM27.2911 0C30.6674 0 33.4044 2.74907 33.4044 6.14021C33.4044 7.21805 33.1219 8.27689 32.5853 9.21032L21.9969 27.631C20.3088 30.5678 16.57 31.574 13.6461 29.8784C12.7167 29.3395 11.945 28.5644 11.4085 27.631L0.820039 9.21032C-0.868084 6.2735 0.133723 2.51821 3.05764 0.822633C3.98697 0.283716 5.04116 0 6.11426 0H27.2911ZM94.6348 0.89631L100.394 6.68136C102.782 9.07936 106.652 9.07937 109.04 6.68139L114.799 0.89631C115.989 -0.29877 117.918 -0.29877 119.108 0.89631C120.298 2.09139 120.298 4.029 119.108 5.22407L110.755 13.6143C109.8 14.5734 109.8 16.1286 110.755 17.0878L119.108 25.478C120.298 26.6731 120.298 28.6107 119.108 29.8058C117.918 31.0009 115.989 31.0009 114.799 29.8058L109.04 24.0207C106.652 21.6227 102.782 21.6227 100.394 24.0206L94.6348 29.8058C93.4451 31.0009 91.516 31.0009 90.3262 29.8058C89.1365 28.6107 89.1365 26.6731 90.3262 25.478L98.6793 17.0878C99.6343 16.1286 99.6343 14.5735 98.6793 13.6143L90.3262 5.22407C89.1365 4.029 89.1365 2.09139 90.3262 0.89631C91.516 -0.29877 93.4451 -0.29877 94.6348 0.89631ZM60.7495 6.14043C55.6851 6.14043 51.5796 10.2642 51.5796 15.3511C51.5796 20.438 55.6851 24.5617 60.7495 24.5617C65.8138 24.5617 69.9193 20.438 69.9193 15.3511C69.9193 10.2642 65.8138 6.14043 60.7495 6.14043ZM23.0559 6.07884H10.3497C9.92051 6.07884 9.49883 6.19233 9.1271 6.4079C7.95753 7.08613 7.55681 8.58824 8.23206 9.76297L14.5851 20.8154C14.7997 21.1887 15.1084 21.4988 15.4802 21.7143C16.6497 22.3926 18.1452 21.9901 18.8205 20.8154L25.1735 9.76297C25.3882 9.3896 25.5012 8.96606 25.5012 8.53493C25.5012 7.17847 24.4064 6.07884 23.0559 6.07884Z" fill="#F9FBFC"/>
</svg>
