<?xml version="1.0" standalone="no"?>
<!DOCTYPE svg PUBLIC "-//W3C//DTD SVG 20010904//EN"
 "http://www.w3.org/TR/2001/REC-SVG-20010904/DTD/svg10.dtd">
<svg version="1.0" xmlns="http://www.w3.org/2000/svg"
 width="700.000000pt" height="700.000000pt" viewBox="0 0 700.000000 700.000000"
 preserveAspectRatio="xMidYMid meet">
<metadata>
Created by potrace 1.14, written by Peter Selinger 2001-2017
</metadata>
<g transform="translate(0.000000,700.000000) scale(0.100000,-0.100000)"
fill="#000000" stroke="none">
<path d="M2596 5323 c-1 -1 -129 -3 -285 -4 -200 -1 -300 -5 -344 -15 -77 -17
-193 -61 -229 -86 -16 -11 -34 -16 -40 -12 -7 4 -10 4 -6 -1 4 -4 -16 -25 -45
-48 -77 -60 -150 -141 -194 -215 -42 -72 -82 -163 -89 -202 -3 -14 -7 -32 -10
-40 -20 -49 -24 -226 -8 -310 22 -115 53 -195 116 -297 11 -18 16 -38 12 -44
-4 -7 -3 -9 3 -6 5 4 16 -6 24 -21 7 -15 20 -35 28 -44 8 -10 10 -18 5 -18 -5
0 -4 -4 2 -8 9 -6 29 -39 88 -147 6 -11 13 -22 16 -25 9 -9 51 -84 63 -112 6
-16 15 -28 19 -28 4 0 8 -5 8 -11 0 -6 8 -23 18 -37 11 -15 32 -52 49 -82 17
-30 40 -72 52 -92 13 -21 19 -43 15 -49 -4 -7 -3 -9 4 -6 10 7 85 -116 85
-140 0 -7 3 -11 6 -9 5 3 152 -248 301 -512 8 -15 25 -43 36 -62 12 -19 33
-55 46 -80 14 -25 34 -61 46 -81 11 -20 26 -47 34 -60 7 -13 18 -31 25 -39 6
-8 13 -22 15 -30 2 -8 6 -17 9 -20 11 -10 119 -199 119 -209 0 -6 4 -11 8 -11
13 0 43 -70 36 -82 -4 -6 -2 -8 4 -5 9 6 31 -27 86 -128 6 -11 40 -69 75 -129
99 -168 238 -295 384 -351 26 -10 47 -22 47 -27 0 -5 4 -7 9 -4 5 4 20 2 34
-3 45 -17 92 -23 207 -26 289 -8 523 120 693 378 21 32 42 68 48 80 5 12 20
40 33 62 13 22 37 64 53 93 16 28 33 49 37 45 4 -5 6 -3 4 2 -4 14 23 75 33
75 5 0 9 4 9 9 0 12 121 225 132 232 5 3 9 8 8 10 -4 12 14 38 23 32 5 -3 7
-1 3 5 -3 6 3 26 14 44 11 18 29 51 41 73 12 22 27 43 33 47 6 5 7 8 1 8 -6 0
-6 3 0 8 6 4 16 18 23 32 6 14 16 32 22 40 8 13 89 155 188 329 14 25 38 67
53 93 16 27 29 53 29 58 0 6 5 10 10 10 6 0 10 6 10 13 0 7 11 28 23 47 13 19
35 55 49 80 14 25 35 61 47 80 11 19 28 50 36 68 9 20 20 30 27 26 7 -4 8 -3
4 4 -4 7 16 50 44 97 27 47 50 88 50 91 0 2 11 23 26 45 25 40 42 70 92 159
14 25 30 48 36 52 6 4 8 8 4 8 -4 0 6 21 22 48 32 52 80 137 122 216 15 28 36
80 48 116 12 36 24 72 27 80 10 29 16 115 15 205 -3 190 -83 382 -220 523 -17
19 -29 39 -25 44 3 7 1 8 -5 4 -6 -4 -35 12 -64 35 -62 50 -198 116 -277 135
-31 8 -94 16 -141 20 -76 5 -2319 12 -2324 7z m134 -786 c0 -6 5 -6 13 0 14
11 1597 10 1644 -1 139 -32 244 -163 244 -304 0 -69 -10 -114 -23 -106 -7 4
-8 2 -4 -5 10 -15 -3 -53 -15 -45 -5 3 -8 2 -7 -3 4 -14 -13 -53 -23 -53 -5 0
-8 -3 -7 -7 2 -10 -16 -48 -44 -93 -11 -19 -34 -60 -51 -90 -17 -30 -33 -57
-36 -60 -3 -3 -15 -23 -26 -45 -10 -22 -34 -64 -52 -93 -18 -29 -33 -54 -33
-57 0 -2 -17 -32 -37 -67 -56 -94 -59 -100 -83 -145 -12 -24 -25 -43 -29 -43
-4 0 -8 -6 -8 -12 0 -7 -21 -48 -47 -91 -25 -43 -46 -82 -46 -86 0 -5 -3 -11
-7 -13 -5 -1 -21 -29 -38 -60 -16 -31 -34 -54 -40 -51 -5 4 -7 3 -3 -1 6 -7
-20 -64 -61 -131 -25 -41 -60 -103 -84 -147 -11 -20 -25 -34 -30 -31 -6 3 -7
1 -3 -5 7 -12 -13 -62 -26 -62 -4 0 -8 -5 -8 -11 0 -16 -36 -59 -44 -52 -3 3
-6 0 -6 -8 0 -17 -70 -62 -122 -78 -106 -34 -232 -4 -311 76 -36 35 -69 84
-66 99 0 4 -3 10 -8 13 -12 8 -65 101 -58 101 3 0 -2 8 -11 18 -22 24 -84 132
-76 132 4 0 2 4 -3 8 -20 14 -95 154 -88 165 3 5 2 7 -4 4 -5 -3 -17 8 -26 26
-10 18 -28 50 -40 72 -13 22 -34 60 -47 85 -13 25 -31 53 -39 63 -8 9 -10 17
-5 17 5 0 4 4 -2 8 -9 6 -109 178 -144 247 -8 17 -18 32 -21 35 -3 3 -21 34
-40 70 -19 36 -37 67 -40 70 -4 4 -40 65 -111 189 -11 19 -31 58 -45 85 -13
28 -28 58 -33 67 -16 31 -5 181 17 229 40 86 118 149 212 173 58 15 131 17
131 4z"/>
<path d="M2435 4371 c-3 -5 -2 -12 3 -15 5 -3 9 1 9 9 0 17 -3 19 -12 6z"/>
</g>
</svg>
